<svg width="25" height="25" viewBox="0 0 25 25" fill="none" xmlns="http://www.w3.org/2000/svg">
<path d="M12.1289 24.2578C18.8275 24.2578 24.2578 18.8275 24.2578 12.1289C24.2578 5.4303 18.8275 0 12.1289 0C5.4303 0 0 5.4303 0 12.1289C0 18.8275 5.4303 24.2578 12.1289 24.2578Z" fill="#4CE797"/>
<path d="M12.1289 21.8444C17.4946 21.8444 21.8444 17.4946 21.8444 12.1289C21.8444 6.76318 17.4946 2.41341 12.1289 2.41341C6.76317 2.41341 2.41339 6.76318 2.41339 12.1289C2.41339 17.4946 6.76317 21.8444 12.1289 21.8444Z" fill="#E7F8FC"/>
<path d="M10.5008 17.0449C10.2185 17.0451 9.9471 16.9364 9.74308 16.7414L6.4893 13.6195C6.38555 13.52 6.30242 13.4011 6.24464 13.2694C6.18687 13.1378 6.15559 12.9961 6.15258 12.8524C6.14958 12.7086 6.17491 12.5657 6.22714 12.4318C6.27936 12.2979 6.35745 12.1756 6.45695 12.0718C6.55646 11.9681 6.67542 11.8849 6.80705 11.8272C6.93868 11.7694 7.0804 11.7381 7.22412 11.7351C7.36783 11.7321 7.51074 11.7574 7.64467 11.8096C7.77859 11.8619 7.90092 11.94 8.00467 12.0395L10.4206 14.3567L16.1772 7.59825C16.2698 7.48667 16.3836 7.39458 16.512 7.32733C16.6405 7.26009 16.781 7.21902 16.9254 7.20651C17.0699 7.194 17.2154 7.2103 17.3534 7.25446C17.4915 7.29862 17.6195 7.36977 17.7298 7.46377C17.8402 7.55778 17.9308 7.67277 17.9964 7.80206C18.062 7.93136 18.1012 8.0724 18.1119 8.21698C18.1225 8.36157 18.1043 8.50683 18.0584 8.64434C18.0124 8.78184 17.9396 8.90885 17.8442 9.018L11.3341 16.6598C11.2374 16.7734 11.1184 16.8661 10.9846 16.932C10.8508 16.998 10.7049 17.0359 10.5559 17.0435C10.5376 17.0443 10.5193 17.0449 10.5008 17.0449Z" fill="#4CE797"/>
</svg>
