<svg width="22" height="29" viewBox="0 0 22 29" fill="none" xmlns="http://www.w3.org/2000/svg">
<path d="M21.1538 4.60425C16.4703 4.60425 11.6165 0.262858 11.5684 0.219365C11.2458 -0.0731218 10.7541 -0.0731218 10.4316 0.219365C10.3832 0.263196 5.54219 4.60425 0.846154 4.60425C0.378851 4.60425 0 4.9831 0 5.4504V15.5838C0 23.7929 6.10562 27.0731 10.6982 28.8264C10.7954 28.8635 10.8977 28.882 11 28.882C11.1023 28.882 11.2046 28.8635 11.3018 28.8264C17.7413 26.3681 22 22.5333 22 15.5838V5.4504C22 4.9831 21.6211 4.60425 21.1538 4.60425Z" fill="url(#paint0_linear)"/>
<path d="M11 8.51794C7.73401 8.51794 5.07692 11.175 5.07692 14.441C5.07692 17.707 7.73401 20.3641 11 20.3641C14.266 20.3641 16.9231 17.707 16.9231 14.441C16.9231 11.175 14.266 8.51794 11 8.51794ZM13.2906 14.1932L10.7521 16.7316C10.587 16.8968 10.3704 16.9795 10.1538 16.9795C9.93728 16.9795 9.72072 16.8969 9.55555 16.7316L8.7094 15.8855C8.37895 15.555 8.37895 15.0193 8.7094 14.6888C9.0398 14.3584 9.57558 14.3584 9.90603 14.6888L10.1539 14.9366L12.0941 12.9965C12.4245 12.6661 12.9603 12.6661 13.2907 12.9965C13.6211 13.327 13.6211 13.8627 13.2906 14.1932Z" fill="url(#paint1_linear)"/>
<defs>
<linearGradient id="paint0_linear" x1="11" y1="28.882" x2="11" y2="-1.3772e-05" gradientUnits="userSpaceOnUse">
<stop stop-color="#00B59C"/>
<stop offset="1" stop-color="#9CFFAC"/>
</linearGradient>
<linearGradient id="paint1_linear" x1="11" y1="20.3641" x2="11" y2="8.51794" gradientUnits="userSpaceOnUse">
<stop stop-color="#C3FFE8"/>
<stop offset="0.9973" stop-color="#F0FFF4"/>
</linearGradient>
</defs>
</svg>
